<mxfile host="Electron" modified="2023-10-23T08:43:39.506Z" agent="Mozilla/5.0 (X11; Linux x86_64) AppleWebKit/537.36 (KHTML, like Gecko) draw.io/22.0.3 Chrome/114.0.5735.289 Electron/25.8.4 Safari/537.36" etag="OJ_Nh4QwHFqHMoYgGv4A" version="22.0.3" type="device">
  <diagram id="C5RBs43oDa-KdzZeNtuy" name="Page-1">
    <mxGraphModel dx="2501" dy="835" grid="1" gridSize="10" guides="1" tooltips="1" connect="1" arrows="1" fold="1" page="1" pageScale="1" pageWidth="827" pageHeight="1169" math="0" shadow="0">
      <root>
        <mxCell id="WIyWlLk6GJQsqaUBKTNV-0" />
        <mxCell id="WIyWlLk6GJQsqaUBKTNV-1" parent="WIyWlLk6GJQsqaUBKTNV-0" />
        <mxCell id="5g3cIuTfEP_hGtk7_Rjy-0" value="Client" style="shape=umlActor;verticalLabelPosition=bottom;verticalAlign=top;html=1;" parent="WIyWlLk6GJQsqaUBKTNV-1" vertex="1">
          <mxGeometry x="-70" y="95" width="30" height="60" as="geometry" />
        </mxCell>
        <mxCell id="u9T7-ZX0uSpbdCKmi0QQ-42" style="edgeStyle=orthogonalEdgeStyle;rounded=0;orthogonalLoop=1;jettySize=auto;html=1;exitX=0.913;exitY=0.999;exitDx=0;exitDy=0;exitPerimeter=0;" parent="WIyWlLk6GJQsqaUBKTNV-1" source="5g3cIuTfEP_hGtk7_Rjy-2" edge="1">
          <mxGeometry relative="1" as="geometry">
            <mxPoint x="-60" y="185.2941176470588" as="targetPoint" />
            <Array as="points">
              <mxPoint x="-60" y="1397" />
            </Array>
          </mxGeometry>
        </mxCell>
        <mxCell id="u9T7-ZX0uSpbdCKmi0QQ-43" value="Envoie de la réponse de demande de prêt" style="edgeLabel;html=1;align=center;verticalAlign=middle;resizable=0;points=[];" parent="u9T7-ZX0uSpbdCKmi0QQ-42" vertex="1" connectable="0">
          <mxGeometry x="0.0876" y="2" relative="1" as="geometry">
            <mxPoint as="offset" />
          </mxGeometry>
        </mxCell>
        <mxCell id="5g3cIuTfEP_hGtk7_Rjy-2" value="Système d&#39;évaluation de demande de prêt immobilier" style="verticalAlign=top;align=left;spacingTop=8;spacingLeft=2;spacingRight=12;shape=cube;size=10;direction=south;fontStyle=4;html=1;whiteSpace=wrap;" parent="WIyWlLk6GJQsqaUBKTNV-1" vertex="1">
          <mxGeometry x="130" y="1" width="670" height="1529" as="geometry" />
        </mxCell>
        <mxCell id="5g3cIuTfEP_hGtk7_Rjy-26" value="Service d’Extraction d’Information (IE) Métiers" style="verticalAlign=top;align=left;spacingTop=8;spacingLeft=2;spacingRight=12;shape=cube;size=10;direction=south;fontStyle=4;html=1;whiteSpace=wrap;" parent="WIyWlLk6GJQsqaUBKTNV-1" vertex="1">
          <mxGeometry x="866" y="190" width="580" height="209" as="geometry" />
        </mxCell>
        <mxCell id="5g3cIuTfEP_hGtk7_Rjy-27" value="Service de Vérification de Solvabilité&amp;nbsp;" style="verticalAlign=top;align=left;spacingTop=8;spacingLeft=2;spacingRight=12;shape=cube;size=10;direction=south;fontStyle=4;html=1;whiteSpace=wrap;" parent="WIyWlLk6GJQsqaUBKTNV-1" vertex="1">
          <mxGeometry x="866" y="426" width="280" height="340" as="geometry" />
        </mxCell>
        <mxCell id="u9T7-ZX0uSpbdCKmi0QQ-34" style="edgeStyle=orthogonalEdgeStyle;rounded=0;orthogonalLoop=1;jettySize=auto;html=1;exitX=0;exitY=0;exitDx=175;exitDy=650;exitPerimeter=0;entryX=1;entryY=0.75;entryDx=0;entryDy=0;" parent="WIyWlLk6GJQsqaUBKTNV-1" source="5g3cIuTfEP_hGtk7_Rjy-28" target="u9T7-ZX0uSpbdCKmi0QQ-29" edge="1">
          <mxGeometry relative="1" as="geometry" />
        </mxCell>
        <mxCell id="5g3cIuTfEP_hGtk7_Rjy-28" value="Service de Décision d&#39;Approbation" style="verticalAlign=top;align=left;spacingTop=8;spacingLeft=2;spacingRight=12;shape=cube;size=10;direction=south;fontStyle=4;html=1;whiteSpace=wrap;" parent="WIyWlLk6GJQsqaUBKTNV-1" vertex="1">
          <mxGeometry x="831" y="1190" width="650" height="340" as="geometry" />
        </mxCell>
        <mxCell id="5g3cIuTfEP_hGtk7_Rjy-29" value="Service d&#39;Évaluation de la Propriété" style="verticalAlign=top;align=left;spacingTop=8;spacingLeft=2;spacingRight=12;shape=cube;size=10;direction=south;fontStyle=4;html=1;whiteSpace=wrap;" parent="WIyWlLk6GJQsqaUBKTNV-1" vertex="1">
          <mxGeometry x="866" y="810.5" width="280" height="339.5" as="geometry" />
        </mxCell>
        <mxCell id="u9T7-ZX0uSpbdCKmi0QQ-30" style="edgeStyle=orthogonalEdgeStyle;rounded=0;orthogonalLoop=1;jettySize=auto;html=1;exitX=0.5;exitY=1;exitDx=0;exitDy=0;entryX=0;entryY=0.5;entryDx=0;entryDy=0;" parent="WIyWlLk6GJQsqaUBKTNV-1" source="5g3cIuTfEP_hGtk7_Rjy-33" target="5g3cIuTfEP_hGtk7_Rjy-35" edge="1">
          <mxGeometry relative="1" as="geometry" />
        </mxCell>
        <mxCell id="5g3cIuTfEP_hGtk7_Rjy-33" value="Réception de la réponse du Service de Vérification de Solvabilité" style="rounded=0;whiteSpace=wrap;html=1;" parent="WIyWlLk6GJQsqaUBKTNV-1" vertex="1">
          <mxGeometry x="876" y="1280" width="230" height="60" as="geometry" />
        </mxCell>
        <mxCell id="5g3cIuTfEP_hGtk7_Rjy-65" style="edgeStyle=orthogonalEdgeStyle;rounded=0;orthogonalLoop=1;jettySize=auto;html=1;entryX=1;entryY=0.5;entryDx=0;entryDy=0;" parent="WIyWlLk6GJQsqaUBKTNV-1" source="5g3cIuTfEP_hGtk7_Rjy-34" target="5g3cIuTfEP_hGtk7_Rjy-35" edge="1">
          <mxGeometry relative="1" as="geometry" />
        </mxCell>
        <mxCell id="5g3cIuTfEP_hGtk7_Rjy-34" value="Réception de la réponse du&amp;nbsp;Service d&#39;Évaluation de la Propriété" style="rounded=0;whiteSpace=wrap;html=1;" parent="WIyWlLk6GJQsqaUBKTNV-1" vertex="1">
          <mxGeometry x="1210" y="1280" width="216" height="60" as="geometry" />
        </mxCell>
        <mxCell id="5g3cIuTfEP_hGtk7_Rjy-63" style="edgeStyle=orthogonalEdgeStyle;rounded=0;orthogonalLoop=1;jettySize=auto;html=1;" parent="WIyWlLk6GJQsqaUBKTNV-1" source="5g3cIuTfEP_hGtk7_Rjy-35" target="5g3cIuTfEP_hGtk7_Rjy-36" edge="1">
          <mxGeometry relative="1" as="geometry" />
        </mxCell>
        <mxCell id="5g3cIuTfEP_hGtk7_Rjy-35" value="Validation du prêt ?" style="rhombus;whiteSpace=wrap;html=1;" parent="WIyWlLk6GJQsqaUBKTNV-1" vertex="1">
          <mxGeometry x="1080" y="1320" width="152" height="88" as="geometry" />
        </mxCell>
        <mxCell id="5g3cIuTfEP_hGtk7_Rjy-36" value="Envoie de la réponse du&amp;nbsp;Service de Décision d&#39;Approbation" style="shape=parallelogram;perimeter=parallelogramPerimeter;whiteSpace=wrap;html=1;fixedSize=1;" parent="WIyWlLk6GJQsqaUBKTNV-1" vertex="1">
          <mxGeometry x="1041" y="1450" width="230" height="60" as="geometry" />
        </mxCell>
        <mxCell id="u9T7-ZX0uSpbdCKmi0QQ-15" style="edgeStyle=orthogonalEdgeStyle;rounded=0;orthogonalLoop=1;jettySize=auto;html=1;exitX=0.5;exitY=1;exitDx=0;exitDy=0;entryX=0.5;entryY=0;entryDx=0;entryDy=0;" parent="WIyWlLk6GJQsqaUBKTNV-1" source="5g3cIuTfEP_hGtk7_Rjy-37" target="5g3cIuTfEP_hGtk7_Rjy-52" edge="1">
          <mxGeometry relative="1" as="geometry" />
        </mxCell>
        <mxCell id="5g3cIuTfEP_hGtk7_Rjy-37" value="Le&amp;nbsp;Service de Vérification de Solvabilité reçoit un message" style="rounded=0;whiteSpace=wrap;html=1;" parent="WIyWlLk6GJQsqaUBKTNV-1" vertex="1">
          <mxGeometry x="908" y="476" width="188" height="60" as="geometry" />
        </mxCell>
        <mxCell id="u9T7-ZX0uSpbdCKmi0QQ-20" style="edgeStyle=orthogonalEdgeStyle;rounded=0;orthogonalLoop=1;jettySize=auto;html=1;exitX=0;exitY=0.5;exitDx=0;exitDy=0;entryX=1;entryY=0.75;entryDx=0;entryDy=0;" parent="WIyWlLk6GJQsqaUBKTNV-1" source="5g3cIuTfEP_hGtk7_Rjy-38" target="u9T7-ZX0uSpbdCKmi0QQ-13" edge="1">
          <mxGeometry relative="1" as="geometry" />
        </mxCell>
        <mxCell id="5g3cIuTfEP_hGtk7_Rjy-38" value="Revoie des informations à propos de la solvabilité du demandeur" style="rounded=0;whiteSpace=wrap;html=1;" parent="WIyWlLk6GJQsqaUBKTNV-1" vertex="1">
          <mxGeometry x="908" y="686" width="186" height="60" as="geometry" />
        </mxCell>
        <mxCell id="u9T7-ZX0uSpbdCKmi0QQ-9" style="edgeStyle=orthogonalEdgeStyle;rounded=0;orthogonalLoop=1;jettySize=auto;html=1;exitX=1;exitY=0.5;exitDx=0;exitDy=0;entryX=0;entryY=0.5;entryDx=0;entryDy=0;" parent="WIyWlLk6GJQsqaUBKTNV-1" source="5g3cIuTfEP_hGtk7_Rjy-39" target="5g3cIuTfEP_hGtk7_Rjy-40" edge="1">
          <mxGeometry relative="1" as="geometry" />
        </mxCell>
        <mxCell id="5g3cIuTfEP_hGtk7_Rjy-39" value="Le&amp;nbsp;Service d’Extraction d’Information (IE) Métiers reçoit le texte de la demande de prêt" style="rounded=0;whiteSpace=wrap;html=1;" parent="WIyWlLk6GJQsqaUBKTNV-1" vertex="1">
          <mxGeometry x="896" y="239" width="190" height="60" as="geometry" />
        </mxCell>
        <mxCell id="u9T7-ZX0uSpbdCKmi0QQ-10" style="edgeStyle=orthogonalEdgeStyle;rounded=0;orthogonalLoop=1;jettySize=auto;html=1;exitX=1;exitY=0.5;exitDx=0;exitDy=0;entryX=0.5;entryY=1;entryDx=0;entryDy=0;" parent="WIyWlLk6GJQsqaUBKTNV-1" source="5g3cIuTfEP_hGtk7_Rjy-40" target="5g3cIuTfEP_hGtk7_Rjy-42" edge="1">
          <mxGeometry relative="1" as="geometry" />
        </mxCell>
        <mxCell id="u9T7-ZX0uSpbdCKmi0QQ-11" style="edgeStyle=orthogonalEdgeStyle;rounded=0;orthogonalLoop=1;jettySize=auto;html=1;exitX=0.5;exitY=1;exitDx=0;exitDy=0;entryX=1;entryY=0.5;entryDx=0;entryDy=0;" parent="WIyWlLk6GJQsqaUBKTNV-1" source="5g3cIuTfEP_hGtk7_Rjy-40" target="5g3cIuTfEP_hGtk7_Rjy-48" edge="1">
          <mxGeometry relative="1" as="geometry" />
        </mxCell>
        <mxCell id="5g3cIuTfEP_hGtk7_Rjy-40" value="Qualité des données ?" style="rhombus;whiteSpace=wrap;html=1;" parent="WIyWlLk6GJQsqaUBKTNV-1" vertex="1">
          <mxGeometry x="1207" y="229" width="177" height="80" as="geometry" />
        </mxCell>
        <mxCell id="5g3cIuTfEP_hGtk7_Rjy-42" value="" style="shape=datastore;whiteSpace=wrap;html=1;" parent="WIyWlLk6GJQsqaUBKTNV-1" vertex="1">
          <mxGeometry x="1530" y="69" width="60" height="60" as="geometry" />
        </mxCell>
        <mxCell id="u9T7-ZX0uSpbdCKmi0QQ-12" style="edgeStyle=orthogonalEdgeStyle;rounded=0;orthogonalLoop=1;jettySize=auto;html=1;exitX=0;exitY=0.5;exitDx=0;exitDy=0;entryX=1;entryY=0.75;entryDx=0;entryDy=0;" parent="WIyWlLk6GJQsqaUBKTNV-1" source="5g3cIuTfEP_hGtk7_Rjy-48" target="u9T7-ZX0uSpbdCKmi0QQ-6" edge="1">
          <mxGeometry relative="1" as="geometry" />
        </mxCell>
        <mxCell id="5g3cIuTfEP_hGtk7_Rjy-48" value="Transmission des informations" style="whiteSpace=wrap;html=1;" parent="WIyWlLk6GJQsqaUBKTNV-1" vertex="1">
          <mxGeometry x="896" y="319" width="190" height="60" as="geometry" />
        </mxCell>
        <mxCell id="u9T7-ZX0uSpbdCKmi0QQ-24" style="edgeStyle=orthogonalEdgeStyle;rounded=0;orthogonalLoop=1;jettySize=auto;html=1;exitX=0.5;exitY=1;exitDx=0;exitDy=0;entryX=0.5;entryY=0;entryDx=0;entryDy=0;" parent="WIyWlLk6GJQsqaUBKTNV-1" source="5g3cIuTfEP_hGtk7_Rjy-50" target="5g3cIuTfEP_hGtk7_Rjy-70" edge="1">
          <mxGeometry relative="1" as="geometry" />
        </mxCell>
        <mxCell id="5g3cIuTfEP_hGtk7_Rjy-50" value="Le&amp;nbsp;Service d&#39;Évaluation de la Propriété reçoit un message" style="rounded=0;whiteSpace=wrap;html=1;" parent="WIyWlLk6GJQsqaUBKTNV-1" vertex="1">
          <mxGeometry x="910" y="870" width="190" height="60" as="geometry" />
        </mxCell>
        <mxCell id="u9T7-ZX0uSpbdCKmi0QQ-28" style="edgeStyle=orthogonalEdgeStyle;rounded=0;orthogonalLoop=1;jettySize=auto;html=1;exitX=0;exitY=0.5;exitDx=0;exitDy=0;entryX=1;entryY=0.75;entryDx=0;entryDy=0;" parent="WIyWlLk6GJQsqaUBKTNV-1" source="5g3cIuTfEP_hGtk7_Rjy-51" target="u9T7-ZX0uSpbdCKmi0QQ-21" edge="1">
          <mxGeometry relative="1" as="geometry" />
        </mxCell>
        <mxCell id="5g3cIuTfEP_hGtk7_Rjy-51" value="Revoie du résultat de l&#39;évaluation de la propriété de manière asynchrone" style="shape=parallelogram;perimeter=parallelogramPerimeter;whiteSpace=wrap;html=1;fixedSize=1;" parent="WIyWlLk6GJQsqaUBKTNV-1" vertex="1">
          <mxGeometry x="886" y="1070" width="240" height="60" as="geometry" />
        </mxCell>
        <mxCell id="u9T7-ZX0uSpbdCKmi0QQ-19" style="edgeStyle=orthogonalEdgeStyle;rounded=0;orthogonalLoop=1;jettySize=auto;html=1;exitX=0.5;exitY=1;exitDx=0;exitDy=0;entryX=0.5;entryY=0;entryDx=0;entryDy=0;" parent="WIyWlLk6GJQsqaUBKTNV-1" source="5g3cIuTfEP_hGtk7_Rjy-52" target="5g3cIuTfEP_hGtk7_Rjy-38" edge="1">
          <mxGeometry relative="1" as="geometry" />
        </mxCell>
        <mxCell id="5g3cIuTfEP_hGtk7_Rjy-52" value="Accès historique financier du client" style="rounded=0;whiteSpace=wrap;html=1;" parent="WIyWlLk6GJQsqaUBKTNV-1" vertex="1">
          <mxGeometry x="908" y="586" width="188" height="60" as="geometry" />
        </mxCell>
        <mxCell id="5g3cIuTfEP_hGtk7_Rjy-53" value="" style="shape=datastore;whiteSpace=wrap;html=1;" parent="WIyWlLk6GJQsqaUBKTNV-1" vertex="1">
          <mxGeometry x="1286" y="580" width="60" height="60" as="geometry" />
        </mxCell>
        <mxCell id="u9T7-ZX0uSpbdCKmi0QQ-18" style="edgeStyle=orthogonalEdgeStyle;rounded=0;orthogonalLoop=1;jettySize=auto;html=1;exitX=0;exitY=0.75;exitDx=0;exitDy=0;entryX=1;entryY=0.75;entryDx=0;entryDy=0;" parent="WIyWlLk6GJQsqaUBKTNV-1" source="5g3cIuTfEP_hGtk7_Rjy-54" target="5g3cIuTfEP_hGtk7_Rjy-52" edge="1">
          <mxGeometry relative="1" as="geometry" />
        </mxCell>
        <mxCell id="5g3cIuTfEP_hGtk7_Rjy-54" value="Bureau de crédit" style="text;html=1;strokeColor=none;fillColor=none;align=center;verticalAlign=middle;whiteSpace=wrap;rounded=0;" parent="WIyWlLk6GJQsqaUBKTNV-1" vertex="1">
          <mxGeometry x="1286" y="605" width="60" height="30" as="geometry" />
        </mxCell>
        <mxCell id="u9T7-ZX0uSpbdCKmi0QQ-25" style="edgeStyle=orthogonalEdgeStyle;rounded=0;orthogonalLoop=1;jettySize=auto;html=1;exitX=1;exitY=0.25;exitDx=0;exitDy=0;entryX=0;entryY=0.25;entryDx=0;entryDy=0;" parent="WIyWlLk6GJQsqaUBKTNV-1" source="5g3cIuTfEP_hGtk7_Rjy-70" target="5g3cIuTfEP_hGtk7_Rjy-72" edge="1">
          <mxGeometry relative="1" as="geometry" />
        </mxCell>
        <mxCell id="u9T7-ZX0uSpbdCKmi0QQ-27" style="edgeStyle=orthogonalEdgeStyle;rounded=0;orthogonalLoop=1;jettySize=auto;html=1;exitX=0.5;exitY=1;exitDx=0;exitDy=0;entryX=0.5;entryY=0;entryDx=0;entryDy=0;" parent="WIyWlLk6GJQsqaUBKTNV-1" source="5g3cIuTfEP_hGtk7_Rjy-70" target="5g3cIuTfEP_hGtk7_Rjy-51" edge="1">
          <mxGeometry relative="1" as="geometry" />
        </mxCell>
        <mxCell id="5g3cIuTfEP_hGtk7_Rjy-70" value="Accès historique des ventes similaires" style="rounded=0;whiteSpace=wrap;html=1;" parent="WIyWlLk6GJQsqaUBKTNV-1" vertex="1">
          <mxGeometry x="911" y="970" width="190" height="60" as="geometry" />
        </mxCell>
        <mxCell id="5g3cIuTfEP_hGtk7_Rjy-71" value="" style="shape=datastore;whiteSpace=wrap;html=1;" parent="WIyWlLk6GJQsqaUBKTNV-1" vertex="1">
          <mxGeometry x="1286" y="970" width="60" height="60" as="geometry" />
        </mxCell>
        <mxCell id="u9T7-ZX0uSpbdCKmi0QQ-26" style="edgeStyle=orthogonalEdgeStyle;rounded=0;orthogonalLoop=1;jettySize=auto;html=1;exitX=0;exitY=0.75;exitDx=0;exitDy=0;entryX=1;entryY=0.5;entryDx=0;entryDy=0;" parent="WIyWlLk6GJQsqaUBKTNV-1" source="5g3cIuTfEP_hGtk7_Rjy-72" target="5g3cIuTfEP_hGtk7_Rjy-70" edge="1">
          <mxGeometry relative="1" as="geometry">
            <Array as="points">
              <mxPoint x="1170" y="1018" />
              <mxPoint x="1170" y="1000" />
            </Array>
          </mxGeometry>
        </mxCell>
        <mxCell id="5g3cIuTfEP_hGtk7_Rjy-72" value="Vente de biens prox" style="text;html=1;strokeColor=none;fillColor=none;align=center;verticalAlign=middle;whiteSpace=wrap;rounded=0;" parent="WIyWlLk6GJQsqaUBKTNV-1" vertex="1">
          <mxGeometry x="1286" y="995" width="60" height="30" as="geometry" />
        </mxCell>
        <mxCell id="u9T7-ZX0uSpbdCKmi0QQ-36" style="edgeStyle=orthogonalEdgeStyle;rounded=0;orthogonalLoop=1;jettySize=auto;html=1;exitX=0.5;exitY=1;exitDx=0;exitDy=0;entryX=0.5;entryY=0;entryDx=0;entryDy=0;" parent="WIyWlLk6GJQsqaUBKTNV-1" source="u9T7-ZX0uSpbdCKmi0QQ-2" target="u9T7-ZX0uSpbdCKmi0QQ-6" edge="1">
          <mxGeometry relative="1" as="geometry" />
        </mxCell>
        <mxCell id="u9T7-ZX0uSpbdCKmi0QQ-2" value="Attend la réception d&#39;une nouvelle demande de prêt" style="rounded=0;whiteSpace=wrap;html=1;" parent="WIyWlLk6GJQsqaUBKTNV-1" vertex="1">
          <mxGeometry x="342.5" y="54" width="245" height="101" as="geometry" />
        </mxCell>
        <mxCell id="u9T7-ZX0uSpbdCKmi0QQ-37" style="edgeStyle=orthogonalEdgeStyle;rounded=0;orthogonalLoop=1;jettySize=auto;html=1;exitX=0.5;exitY=1;exitDx=0;exitDy=0;entryX=0.5;entryY=0;entryDx=0;entryDy=0;" parent="WIyWlLk6GJQsqaUBKTNV-1" source="u9T7-ZX0uSpbdCKmi0QQ-6" target="u9T7-ZX0uSpbdCKmi0QQ-13" edge="1">
          <mxGeometry relative="1" as="geometry" />
        </mxCell>
        <mxCell id="u9T7-ZX0uSpbdCKmi0QQ-6" value="Invoque le service d&#39;Extraction d&#39;Informations Métiers et reçoit&amp;nbsp; la réponse" style="rounded=0;whiteSpace=wrap;html=1;" parent="WIyWlLk6GJQsqaUBKTNV-1" vertex="1">
          <mxGeometry x="342.5" y="218.5" width="245" height="101" as="geometry" />
        </mxCell>
        <mxCell id="u9T7-ZX0uSpbdCKmi0QQ-7" style="edgeStyle=orthogonalEdgeStyle;rounded=0;orthogonalLoop=1;jettySize=auto;html=1;entryX=0;entryY=0.5;entryDx=0;entryDy=0;" parent="WIyWlLk6GJQsqaUBKTNV-1" source="u9T7-ZX0uSpbdCKmi0QQ-6" target="5g3cIuTfEP_hGtk7_Rjy-39" edge="1">
          <mxGeometry relative="1" as="geometry" />
        </mxCell>
        <mxCell id="u9T7-ZX0uSpbdCKmi0QQ-14" style="edgeStyle=orthogonalEdgeStyle;rounded=0;orthogonalLoop=1;jettySize=auto;html=1;entryX=0;entryY=0.5;entryDx=0;entryDy=0;" parent="WIyWlLk6GJQsqaUBKTNV-1" source="u9T7-ZX0uSpbdCKmi0QQ-13" target="5g3cIuTfEP_hGtk7_Rjy-37" edge="1">
          <mxGeometry relative="1" as="geometry" />
        </mxCell>
        <mxCell id="u9T7-ZX0uSpbdCKmi0QQ-38" style="edgeStyle=orthogonalEdgeStyle;rounded=0;orthogonalLoop=1;jettySize=auto;html=1;exitX=0.5;exitY=1;exitDx=0;exitDy=0;entryX=0.5;entryY=0;entryDx=0;entryDy=0;" parent="WIyWlLk6GJQsqaUBKTNV-1" source="u9T7-ZX0uSpbdCKmi0QQ-13" target="u9T7-ZX0uSpbdCKmi0QQ-21" edge="1">
          <mxGeometry relative="1" as="geometry" />
        </mxCell>
        <mxCell id="u9T7-ZX0uSpbdCKmi0QQ-13" value="Invoque le service de Verification de Solvabilité et reçoit la réponse de manière asynchrone" style="rounded=0;whiteSpace=wrap;html=1;" parent="WIyWlLk6GJQsqaUBKTNV-1" vertex="1">
          <mxGeometry x="342.5" y="545.5" width="245" height="101" as="geometry" />
        </mxCell>
        <mxCell id="u9T7-ZX0uSpbdCKmi0QQ-17" style="edgeStyle=orthogonalEdgeStyle;rounded=0;orthogonalLoop=1;jettySize=auto;html=1;exitX=1;exitY=0.25;exitDx=0;exitDy=0;entryX=0;entryY=0.25;entryDx=0;entryDy=0;" parent="WIyWlLk6GJQsqaUBKTNV-1" source="5g3cIuTfEP_hGtk7_Rjy-52" target="5g3cIuTfEP_hGtk7_Rjy-54" edge="1">
          <mxGeometry relative="1" as="geometry" />
        </mxCell>
        <mxCell id="u9T7-ZX0uSpbdCKmi0QQ-22" style="edgeStyle=orthogonalEdgeStyle;rounded=0;orthogonalLoop=1;jettySize=auto;html=1;exitX=1;exitY=0.5;exitDx=0;exitDy=0;entryX=0;entryY=0.5;entryDx=0;entryDy=0;" parent="WIyWlLk6GJQsqaUBKTNV-1" source="u9T7-ZX0uSpbdCKmi0QQ-21" target="5g3cIuTfEP_hGtk7_Rjy-50" edge="1">
          <mxGeometry relative="1" as="geometry" />
        </mxCell>
        <mxCell id="u9T7-ZX0uSpbdCKmi0QQ-39" style="edgeStyle=orthogonalEdgeStyle;rounded=0;orthogonalLoop=1;jettySize=auto;html=1;exitX=0.5;exitY=1;exitDx=0;exitDy=0;entryX=0.5;entryY=0;entryDx=0;entryDy=0;" parent="WIyWlLk6GJQsqaUBKTNV-1" source="u9T7-ZX0uSpbdCKmi0QQ-21" target="u9T7-ZX0uSpbdCKmi0QQ-29" edge="1">
          <mxGeometry relative="1" as="geometry" />
        </mxCell>
        <mxCell id="u9T7-ZX0uSpbdCKmi0QQ-21" value="Invoque le service d&#39;Evaluation de la Propriété et reçoit&amp;nbsp; la réponse de manière asynchrone" style="rounded=0;whiteSpace=wrap;html=1;" parent="WIyWlLk6GJQsqaUBKTNV-1" vertex="1">
          <mxGeometry x="342.5" y="929.75" width="245" height="101" as="geometry" />
        </mxCell>
        <mxCell id="u9T7-ZX0uSpbdCKmi0QQ-29" value="Invoque le service de Décision d&#39;approbationet reçoit la réponse pour la demande du prêt" style="rounded=0;whiteSpace=wrap;html=1;" parent="WIyWlLk6GJQsqaUBKTNV-1" vertex="1">
          <mxGeometry x="342.5" y="1313.5" width="245" height="101" as="geometry" />
        </mxCell>
        <mxCell id="u9T7-ZX0uSpbdCKmi0QQ-32" style="edgeStyle=orthogonalEdgeStyle;rounded=0;orthogonalLoop=1;jettySize=auto;html=1;exitX=0.5;exitY=1;exitDx=0;exitDy=0;entryX=0.5;entryY=0;entryDx=0;entryDy=0;" parent="WIyWlLk6GJQsqaUBKTNV-1" source="u9T7-ZX0uSpbdCKmi0QQ-31" target="5g3cIuTfEP_hGtk7_Rjy-35" edge="1">
          <mxGeometry relative="1" as="geometry" />
        </mxCell>
        <mxCell id="u9T7-ZX0uSpbdCKmi0QQ-31" value="Réception des infos clients" style="rounded=0;whiteSpace=wrap;html=1;" parent="WIyWlLk6GJQsqaUBKTNV-1" vertex="1">
          <mxGeometry x="1048" y="1210" width="216" height="60" as="geometry" />
        </mxCell>
        <mxCell id="u9T7-ZX0uSpbdCKmi0QQ-33" style="edgeStyle=orthogonalEdgeStyle;rounded=0;orthogonalLoop=1;jettySize=auto;html=1;exitX=1;exitY=0.25;exitDx=0;exitDy=0;entryX=0.28;entryY=1.002;entryDx=0;entryDy=0;entryPerimeter=0;" parent="WIyWlLk6GJQsqaUBKTNV-1" source="u9T7-ZX0uSpbdCKmi0QQ-29" target="5g3cIuTfEP_hGtk7_Rjy-28" edge="1">
          <mxGeometry relative="1" as="geometry" />
        </mxCell>
        <mxCell id="u9T7-ZX0uSpbdCKmi0QQ-35" style="edgeStyle=orthogonalEdgeStyle;rounded=0;orthogonalLoop=1;jettySize=auto;html=1;entryX=0.09;entryY=1.004;entryDx=0;entryDy=0;entryPerimeter=0;" parent="WIyWlLk6GJQsqaUBKTNV-1" source="5g3cIuTfEP_hGtk7_Rjy-0" target="5g3cIuTfEP_hGtk7_Rjy-2" edge="1">
          <mxGeometry relative="1" as="geometry" />
        </mxCell>
        <mxCell id="u9T7-ZX0uSpbdCKmi0QQ-41" value="Envoie sa demande" style="edgeLabel;html=1;align=center;verticalAlign=middle;resizable=0;points=[];" parent="u9T7-ZX0uSpbdCKmi0QQ-35" vertex="1" connectable="0">
          <mxGeometry x="-0.2073" y="-4" relative="1" as="geometry">
            <mxPoint x="1" as="offset" />
          </mxGeometry>
        </mxCell>
      </root>
    </mxGraphModel>
  </diagram>
</mxfile>
